<svg width="220" height="80" viewBox="0 0 220 80" fill="none" xmlns="http://www.w3.org/2000/svg">
  <path d="M110 72C96 48 87 28 58 16" stroke="#7A8B7E" stroke-width="1.2" stroke-linecap="round"/>
  <path d="M110 72C124 48 133 28 162 16" stroke="#7A8B7E" stroke-width="1.2" stroke-linecap="round"/>
  <path d="M72 21C64 20 58 24 55 31C63 33 70 29 72 21Z" stroke="#7A8B7E" stroke-width="1.2"/>
  <path d="M91 41C82 40 76 45 74 52C82 54 90 49 91 41Z" stroke="#7A8B7E" stroke-width="1.2"/>
  <path d="M148 21C156 20 162 24 165 31C157 33 150 29 148 21Z" stroke="#7A8B7E" stroke-width="1.2"/>
  <path d="M129 41C138 40 144 45 146 52C138 54 130 49 129 41Z" stroke="#7A8B7E" stroke-width="1.2"/>
</svg>
